<svg width="268" height="268" viewBox="0 0 268 268" fill="none" xmlns="http://www.w3.org/2000/svg">
<circle cx="134" cy="134" r="134" fill="#686868"/>
<circle cx="133.901" cy="206.972" r="20.0704" transform="rotate(-180 133.901 206.972)" fill="#DAD100"/>
<circle cx="68.0702" cy="99.3944" r="20.0704" transform="rotate(-180 68.0702 99.3944)" fill="#DAD100"/>
<circle cx="198.93" cy="99.3944" r="20.0704" transform="rotate(-180 198.93 99.3944)" fill="#DAD100"/>
<path d="M170.744 67.2387L164.876 76.6887C164.876 76.6887 145.79 69.2012 133.012 69.2512C120.444 69.3004 101.702 76.6887 101.702 76.6887L96.4834 67.2387C96.4834 67.2387 118.299 58.1235 133.012 58.0118C148.181 57.8966 170.744 67.2387 170.744 67.2387Z" fill="#FFFBAA" fill-opacity="0.26"/>
<rect x="76.9014" y="125.667" width="12.0423" height="71.5739" transform="rotate(-31 76.9014 125.667)" fill="#DAD100"/>
<rect x="180.398" y="119.465" width="12.0423" height="71.5739" transform="rotate(31 180.398 119.465)" fill="#DAD100"/>
</svg>
